<svg width="136px" height="419px"
 viewBox="0.00 0.00 135.68 419.35" xmlns="http://www.w3.org/2000/svg" xmlns:xlink="http://www.w3.org/1999/xlink">
<g id="graph0" class="graph" transform="scale(1.0 1.0) rotate(0) translate(4 415.35)">
<title>G</title>
<polygon fill="white" stroke="none" points="-4,4 -4,-415.35 131.68,-415.35 131.68,4 -4,4"/>
<!-- Z -->
<g id="node1" class="node">
<title>Z</title>
<ellipse fill="red" stroke="black" cx="55.68" cy="-96.62" rx="19.62" ry="19.62"/>
<ellipse fill="none" stroke="black" cx="55.68" cy="-96.62" rx="23.62" ry="23.62"/>
<text text-anchor="middle" x="55.68" y="-86.74" font-family="Times New Roman,serif" font-size="25.00">Z</text>
</g>
<!-- Ω -->
<g id="node5" class="node">
<title>Ω</title>
<ellipse fill="lightgrey" stroke="black" cx="55.68" cy="-19.62" rx="19.62" ry="19.62"/>
<text text-anchor="middle" x="55.68" y="-9.75" font-family="Times New Roman,serif" font-size="25.00">Ω</text>
</g>
<!-- Z&#45;&gt;Ω -->
<g id="edge4" class="edge">
<title>Z&#45;&gt;Ω</title>
<path fill="none" stroke="black" d="M55.68,-72.71C55.68,-64.53 55.68,-55.25 55.68,-46.82"/>
<polygon fill="black" stroke="black" points="57.78,-46.88 55.68,-40.88 53.58,-46.88 57.78,-46.88"/>
<text text-anchor="middle" x="91.68" y="-50.69" font-family="Times New Roman,serif" font-size="14.00">FinalZustand</text>
</g>
<!-- X -->
<g id="node2" class="node">
<title>X</title>
<ellipse fill="lightgrey" stroke="black" cx="55.68" cy="-246.61" rx="19.62" ry="19.62"/>
<text text-anchor="middle" x="55.68" y="-236.73" font-family="Times New Roman,serif" font-size="25.00">X</text>
</g>
<!-- Y -->
<g id="node4" class="node">
<title>Y</title>
<ellipse fill="lightgrey" stroke="black" cx="55.68" cy="-173.61" rx="19.62" ry="19.62"/>
<text text-anchor="middle" x="55.68" y="-163.74" font-family="Times New Roman,serif" font-size="25.00">Y</text>
</g>
<!-- X&#45;&gt;Y -->
<g id="edge1" class="edge">
<title>X&#45;&gt;Y</title>
<path fill="none" stroke="black" d="M55.68,-226.58C55.68,-218.78 55.68,-209.62 55.68,-201.18"/>
<polygon fill="black" stroke="black" points="57.78,-201.2 55.68,-195.2 53.58,-201.2 57.78,-201.2"/>
<text text-anchor="middle" x="91.68" y="-204.68" font-family="Times New Roman,serif" font-size="14.00">FinalZustand</text>
</g>
<!-- START -->
<g id="node3" class="node">
<title>START</title>
<ellipse fill="blue" stroke="black" cx="55.68" cy="-355.66" rx="55.68" ry="55.68"/>
<text text-anchor="middle" x="55.68" y="-345.79" font-family="Times New Roman,serif" font-size="25.00">START</text>
</g>
<!-- START&#45;&gt;X -->
<g id="edge2" class="edge">
<title>START&#45;&gt;X</title>
<path fill="none" stroke="black" d="M55.68,-299.57C55.68,-290.65 55.68,-281.79 55.68,-273.99"/>
<polygon fill="black" stroke="black" points="57.78,-274.08 55.68,-268.08 53.58,-274.08 57.78,-274.08"/>
<text text-anchor="middle" x="91.68" y="-277.68" font-family="Times New Roman,serif" font-size="14.00">FinalZustand</text>
</g>
<!-- Y&#45;&gt;Z -->
<g id="edge3" class="edge">
<title>Y&#45;&gt;Z</title>
<path fill="none" stroke="black" d="M55.68,-153.69C55.68,-145.9 55.68,-136.69 55.68,-128"/>
<polygon fill="black" stroke="black" points="57.78,-128.06 55.68,-122.06 53.58,-128.06 57.78,-128.06"/>
<text text-anchor="middle" x="91.68" y="-131.69" font-family="Times New Roman,serif" font-size="14.00">FinalZustand</text>
</g>
</g>
</svg>
